<svg width="30" height="7" viewBox="0 0 30 7" fill="none" xmlns="http://www.w3.org/2000/svg">
<path fill-rule="evenodd" clip-rule="evenodd" d="M4.125 1C2.74444 1 1.625 2.11918 1.625 3.5C1.625 4.88045 2.7444 5.99967 4.125 5.99967C5.50597 5.99967 6.62533 4.88042 6.62533 3.5C6.62533 2.11921 5.50593 1 4.125 1ZM0.625 3.5C0.625 1.56682 2.19223 0 4.125 0C6.05807 0 7.62533 1.56679 7.62533 3.5C7.62533 5.43292 6.05803 6.99967 4.125 6.99967C2.19226 6.99967 0.625 5.43288 0.625 3.5ZM15.125 1C13.7444 1 12.625 2.11918 12.625 3.5C12.625 4.88045 13.7444 5.99967 15.125 5.99967C16.5059 5.99967 17.625 4.88049 17.625 3.5C17.625 2.11914 16.5059 1 15.125 1ZM11.625 3.5C11.625 1.56682 13.1922 0 15.125 0C17.0581 0 18.625 1.56686 18.625 3.5C18.625 5.43284 17.0581 6.99967 15.125 6.99967C13.1923 6.99967 11.625 5.43288 11.625 3.5ZM26.125 1C24.7444 1 23.625 2.11918 23.625 3.5C23.625 4.88045 24.7444 5.99967 26.125 5.99967C27.5059 5.99967 28.625 4.88049 28.625 3.5C28.625 2.11914 27.5059 1 26.125 1ZM22.625 3.5C22.625 1.56682 24.1922 0 26.125 0C28.0581 0 29.625 1.56686 29.625 3.5C29.625 5.43284 28.0581 6.99967 26.125 6.99967C24.1923 6.99967 22.625 5.43288 22.625 3.5Z" fill="#555555"/>
</svg>
