<svg width="35" height="22" viewBox="0 0 35 22" fill="none" xmlns="http://www.w3.org/2000/svg">
<path fill-rule="evenodd" clip-rule="evenodd" d="M17.1133 1.52422C15.1239 1.52422 13.5134 3.169 13.5134 5.19436C13.5134 7.21917 15.1233 8.86108 17.1133 8.86108C19.1035 8.86108 20.7132 7.22231 20.7132 5.19436C20.7132 3.16586 19.103 1.52422 17.1133 1.52422ZM12.5087 5.19436C12.5087 2.60388 14.5685 0.5 17.1133 0.5C19.6578 0.5 21.7178 2.6002 21.7178 5.19436C21.7178 7.78907 19.6573 9.8853 17.1133 9.8853C14.569 9.8853 12.5087 7.78538 12.5087 5.19436ZM6.58811 4.41595C5.14762 4.41595 3.97943 5.60693 3.97943 7.07552C3.97943 8.54411 5.14762 9.73508 6.58811 9.73508C8.02861 9.73508 9.1968 8.54411 9.1968 7.07552C9.1968 5.60693 8.02861 4.41595 6.58811 4.41595ZM2.9748 7.07552C2.9748 5.04126 4.59278 3.39173 6.58811 3.39173C8.58345 3.39173 10.2014 5.04126 10.2014 7.07552C10.2014 9.10977 8.58345 10.7593 6.58811 10.7593C4.59278 10.7593 2.9748 9.10977 2.9748 7.07552ZM27.6619 4.41595C26.2214 4.41595 25.0532 5.60693 25.0532 7.07552C25.0532 8.54411 26.2214 9.73508 27.6619 9.73508C29.1024 9.73508 30.2706 8.54411 30.2706 7.07552C30.2706 5.60693 29.1024 4.41595 27.6619 4.41595ZM24.0486 7.07552C24.0486 5.04126 25.6665 3.39173 27.6619 3.39173C29.6572 3.39173 31.2752 5.04126 31.2752 7.07552C31.2752 9.10977 29.6572 10.7593 27.6619 10.7593C25.6665 10.7593 24.0486 9.10977 24.0486 7.07552ZM17.0731 11.8416C13.0121 11.8416 9.75605 15.4236 9.75605 19.6188V20.4758H24.4705V19.3935C24.4705 15.2204 21.1586 11.8416 17.0731 11.8416ZM8.75142 19.6188C8.75142 14.9102 12.4073 10.8173 17.0731 10.8173C21.7145 10.8173 25.4751 14.6559 25.4751 19.3935V21.5H8.75142V19.6188Z" fill="#555555"/>
<path d="M6.6283 19.1067H1.12963V18.5844C1.12963 15.399 3.56418 12.8112 6.55463 12.8112C7.34159 12.8112 8.11515 12.9921 8.82844 13.3267C9.03941 13.0433 9.26043 12.7736 9.49484 12.5141C8.58398 12.0396 7.57935 11.7869 6.55128 11.7869C3.00829 11.7835 0.125 14.8323 0.125 18.581V20.1275H6.58142C6.58142 19.7827 6.59816 19.4413 6.63165 19.1033L6.6283 19.1067Z" fill="#555555"/>
<path d="M27.6317 11.7835C26.6439 11.7835 25.6694 12.0362 24.7786 12.5073C25.0164 12.7668 25.2407 13.0331 25.4517 13.3165C26.1415 12.9887 26.8816 12.8078 27.6317 12.8078C30.659 12.8078 33.1204 15.3205 33.1204 18.4103V19.1067H27.615C27.6317 19.3662 27.6451 19.6257 27.6451 19.8886V20.131H34.125V18.4103C34.125 14.7572 31.2116 11.7835 27.6317 11.7835Z" fill="#555555"/>
</svg>
