<svg width="27" height="23" viewBox="0 0 27 23" fill="none" xmlns="http://www.w3.org/2000/svg">
<path fill-rule="evenodd" clip-rule="evenodd" d="M25.5417 15.3337H22.875V19.334C22.875 19.5897 22.7453 19.822 22.5177 19.9353C22.4237 19.9823 22.3233 20.0053 22.224 20.0053C22.0817 20.0053 21.9407 19.9583 21.822 19.867L15.8747 15.3337H7.54167C7.085 15.3337 6.54167 14.7943 6.54167 14.3337V1.00033C6.54167 0.54 7.085 0 7.54167 0H25.5417C25.998 0 26.5413 0.54 26.5413 1.00033V14.3337C26.5413 14.7943 25.998 15.3337 25.5417 15.3337ZM7.54167 1.00033V14.3337H16.208L21.8747 18.667V14.3337H25.5417L25.548 1.00533L7.54167 1.00033ZM1.875 18.667H4.54133V21.3337L7.54167 18.667H13.5413V16.3337H14.5417V18.667C14.5417 19.1253 14.0067 19.667 13.5413 19.667H7.87467L4.60533 22.4947C4.47933 22.6067 4.31733 22.6657 4.15367 22.6657C4.06133 22.6657 3.968 22.6467 3.88033 22.6087C3.637 22.5013 3.54167 22.2627 3.54167 22.0003V19.667H1.875C1.41 19.667 0.875 19.1253 0.875 18.667V9.667C0.875 9.20867 1.41 8.667 1.875 8.667H5.54133V9.667H1.875V18.667Z" fill="#555555"/>
</svg>
